<?xml version="1.0" encoding="UTF-8" standalone="no"?>
<svg
   viewBox="0 0 225.584 307.87155"
   version="1.1"
   id="svg1875"
   xml:space="preserve"
   width="225.584"
   height="307.87155"
   xmlns="http://www.w3.org/2000/svg"
   xmlns:svg="http://www.w3.org/2000/svg"><mask
     id="a"
     maskUnits="userSpaceOnUse"
     x="27"
     y="0"
     width="174"
     height="173"><path
       fill-rule="evenodd"
       clip-rule="evenodd"
       d="m 114.059,172.356 c 47.595,0 86.179,-38.583 86.179,-86.1778 C 200.238,38.5833 161.654,0 114.059,0 66.4645,0 27.8812,38.5833 27.8812,86.1782 c 0,47.5948 38.5833,86.1778 86.1778,86.1778 z"
       fill="#ffffff"
       id="path1837" /></mask><defs
     id="defs1873"><linearGradient
       id="b"
       x1="35.774101"
       y1="152.31"
       x2="149.257"
       y2="152.31"
       gradientUnits="userSpaceOnUse"><stop
         stop-color="#EBF5F7"
         id="stop1851" /><stop
         offset=".1524"
         stop-color="#F1F8FA"
         id="stop1853" /><stop
         offset=".5381"
         stop-color="#FCFDFE"
         id="stop1855" /><stop
         offset="1"
         stop-color="#fff"
         id="stop1857" /></linearGradient><linearGradient
       id="d"
       x1="159.726"
       y1="199.207"
       x2="227.089"
       y2="40.511501"
       gradientUnits="userSpaceOnUse"><stop
         offset=".1"
         stop-color="#C09"
         id="stop1860" /><stop
         offset=".1989"
         stop-color="#CF0090"
         id="stop1862" /><stop
         offset=".3602"
         stop-color="#D70078"
         id="stop1864" /><stop
         offset=".5638"
         stop-color="#E40050"
         id="stop1866" /><stop
         offset=".7995"
         stop-color="#F70019"
         id="stop1868" /><stop
         offset=".9"
         stop-color="red"
         id="stop1870" /></linearGradient><mask
       id="c"
       maskUnits="userSpaceOnUse"
       x="27"
       y="0"
       width="174"
       height="173"><path
         fill-rule="evenodd"
         clip-rule="evenodd"
         d="M 114.059,86.1782 36.973,124.743 c -5.817,-11.634 -9.0918,-24.69 -9.0918,-38.5648 0,-13.8747 3.2748,-26.9307 9.0918,-38.5647 z M 114.059,0 C 92.7303,0 73.254,7.75604 58.216,20.5535 l 90.315,48.3891 v 34.4714 l -90.315,48.389 c 15.038,12.797 34.5143,20.553 55.843,20.553 47.614,0 86.179,-38.564 86.179,-86.1778 C 200.238,38.5648 161.673,0 114.059,0 Z"
         fill="#ffffff"
         id="path1842" /></mask></defs><path
     d="M 23.1237,238.80357 H 15.116 L 0,199.49329 h 7.23685 l 5.56685,14.90138 c 2.1839,5.86697 4.3678,11.81874 6.423201,17.6857 C 21.3251,226.17049 23.4662,220.13289 25.693,214.18113 l 5.4811,-14.68784 h 7.108401 z m 26.9346,-47.70304 c 0,2.48391 -2.0126,4.53867 -4.6247,4.53867 -2.612099,0 -4.6248,-2.05476 -4.6248,-4.53867 0,-2.48391 2.012701,-4.53867 4.6248,-4.53867 2.6121,0 4.6247,2.09768 4.6247,4.53867 z m -8.0078,47.70304 v -39.31028 h 6.8086 v 39.31028 z m 46.076201,-26.46366 v 26.46366 h -6.466 v -5.18136 c -2.483701,3.98181 -7.3653,6.16532 -13.360401,6.16532 -7.921899,0 -13.916999,-3.5537 -13.916999,-11.30479 0,-10.23397 10.234399,-11.8177 20.768499,-14.12995 l 6.2948,-1.37121 v -0.17064 c 0,-5.99468 -4.025299,-8.30795 -9.549199,-8.30795 -6.0379,0 -10.362901,2.8262 -12.803701,4.96782 l -2.2267,-5.73823 c 2.9975,-2.44099 8.264601,-5.13845 15.3729,-5.13845 10.1059,-0.0429 15.886801,5.35302 15.886801,13.74578 z m -6.637301,9.72003 v -3.59661 l -5.738099,1.28436 c -10.063,2.22643 -14.5165,3.72535 -14.5165,8.60733 0,3.63952 2.9975,5.65239 8.050499,5.65239 6.6373,0 12.2041,-3.42597 12.2041,-11.94747 z m 52.1566,-2.95493 c 0,12.59016 -7.408,20.64063 -18.37,20.64063 -5.696,0 -10.32,-2.14162 -13.361,-6.25218 v 16.87135 h -6.8083 v -50.87152 h 6.5513 v 6.20925 c 3.041,-4.58159 7.88,-7.15131 13.96,-7.15131 10.748,0 18.028,8.05047 18.028,20.55378 z m -6.894,0 c 0,-8.90671 -4.925,-14.51619 -12.29,-14.51619 -7.408,0 -12.761,5.65239 -12.761,14.64492 0,8.77797 5.139,14.51618 12.632,14.51618 7.494,0 12.419,-5.69529 12.419,-14.64491 z m 12.632,19.69856 v -50.7009 h 6.809 v 50.74279 h -6.809 z m 46.119,-26.46366 v 26.46366 h -6.466 v -5.18136 c -2.48399,3.98181 -7.365,6.16532 -13.35999,6.16532 -7.92201,0 -13.91701,-3.5537 -13.91701,-11.30479 0,-10.23397 10.234,-11.8177 20.768,-14.12995 l 6.295,-1.37121 v -0.17064 c 0,-5.99468 -4.025,-8.30795 -9.54899,-8.30795 -6.03801,0 -10.40601,2.8262 -12.80401,4.96782 l -2.227,-5.73823 c 2.998,-2.44099 8.265,-5.13845 15.373,-5.13845 10.10601,-0.0429 15.887,5.35302 15.887,13.74578 z m -6.637,9.72003 v -3.59661 l -5.738,1.28436 c -10.064,2.22643 -14.51699,3.72535 -14.51699,8.60733 0,3.63952 2.99799,5.65239 8.04999,5.65239 6.595,0 12.205,-3.42597 12.205,-11.94747 z m 32.501,14.17389 c -3.64,9.37774 -8.222,13.06018 -16.572,15.07305 l -2.098,-5.48073 c 4.068,-1.37019 7.751,-2.65557 10.406,-6.55155 l -15.33,-39.78131 h 7.236 l 5.267,14.13097 c 2.184,5.90989 4.839,12.97537 6.466,17.59987 1.79901,-4.71033 4.325,-11.6481 6.55201,-17.59987 l 5.22399,-14.13097 h 7.066 z"
     id="path1835"
     style="fill:#212d33;fill-opacity:1" /><path
     d="M 148.056,67.9113 58.2895,19.7037 57.8177,19.4462 57.3888,19.8325 c -8.7922,7.5123 -15.9547,16.6559 -21.23,27.259 l -0.386,0.7727 0.772,0.3863 75.1842,37.6045 -75.1842,37.647 -0.772,0.387 0.386,0.772 c 5.2753,10.561 12.4378,19.747 21.23,27.259 l 0.4289,0.387 0.5147,-0.258 89.6806,-48.207 0.343,-0.258 0.858,-0.515 V 68.7269 l -0.858,-0.5151 z"
     fill="url(#b)"
     id="path1840"
     mask="url(#a)"
     transform="matrix(0.98726921,0,0,0.98726921,0.28906815,0)"
     style="fill:url(#b)" /><path
     d="m 114.059,172.356 c 47.595,0 86.179,-38.583 86.179,-86.1778 C 200.238,38.5833 161.654,0 114.059,0 66.4645,0 27.8812,38.5833 27.8812,86.1782 c 0,47.5948 38.5833,86.1778 86.1778,86.1778 z"
     fill="url(#d)"
     id="path1845"
     mask="url(#c)"
     transform="matrix(0.98726921,0,0,0.98726921,0.28906815,0)"
     style="fill:url(#d)" /><path
     d="m 205.63101,297.53656 h -26.73627 v -4.60032 l 9.11339,-8.21485 1.4823,-1.3144 q 3.0744,-2.73829 4.7763,-4.49078 1.7568,-1.80729 2.85479,-3.77883 1.15291,-1.97157 1.15291,-4.05268 0,-2.51922 -1.64701,-4.05267 -1.5921,-1.53344 -4.28218,-1.53344 -5.49001,0 -8.01541,6.62666 l -5.76449,-2.19063 q 1.4823,-4.92892 5.0508,-7.66721 3.6234,-2.79305 8.7291,-2.79305 3.84299,0 6.6429,1.47867 2.85478,1.47869 4.33709,4.10744 1.53719,2.57399 1.53719,5.80518 0,3.1764 -1.53719,6.02422 -1.5372,2.84781 -3.89791,5.31228 -2.3607,2.46445 -6.31348,5.85993 l -4.28221,3.6693 h 16.79938 z"
     id="path594-1"
     style="fill:#ffcf1b;fill-opacity:1" /><path
     d="m 53.445279,262.12769 -3.843003,4.97606 q -1.921503,-1.5311 -3.952802,-2.29665 -1.976398,-0.82022 -4.446897,-0.82022 -2.964597,0 -4.611598,1.31236 -1.647001,1.25767 -1.647001,3.17153 0,1.64048 1.317597,2.78879 1.317597,1.14831 4.117505,2.35131 l 3.842995,1.69515 q 3.458698,1.53107 5.599804,3.00749 2.141101,1.42173 3.294004,3.49963 1.152892,2.02322 1.152892,4.97603 0,3.49965 -1.756796,6.12438 -1.701901,2.62471 -4.7763,4.04644 -3.019505,1.42173 -6.972306,1.42173 -4.556693,0 -8.344794,-1.53108 -3.7881,-1.58578 -6.533102,-4.10114 l 3.623399,-5.03074 q 5.380203,4.53859 11.199602,4.53859 3.129299,0 4.940996,-1.36704 1.866603,-1.36703 1.866603,-3.82772 0,-1.53108 -0.823505,-2.57004 -0.823495,-1.09363 -2.250894,-1.85919 -1.372503,-0.82022 -3.952802,-1.91385 l -3.788101,-1.69513 q -4.7214,-2.07791 -6.642899,-4.48392 -1.866603,-2.406 -1.866603,-5.90563 0,-2.89813 1.5921,-5.3588 1.5921,-2.46069 4.556704,-3.88242 3.019499,-1.47641 7.082103,-1.47641 7.136997,0 12.023099,4.21049 z"
     id="path1020-4"
     style="fill:#8a8c90;fill-opacity:1" /><path
     d="m 84.779191,283.54646 q 0,4.3087 -1.743498,7.63568 -1.689016,3.32697 -4.685659,5.18135 -2.942157,1.85438 -6.592605,1.85438 -5.393958,0 -8.554055,-3.43604 v 13.08973 h -6.211211 v -38.28747 h 5.884313 v 3.16335 q 1.525559,-1.85438 3.759419,-2.83612 2.288339,-0.98171 5.121534,-0.98171 3.650448,0 6.592605,1.85437 2.996643,1.85438 4.685659,5.18135 1.743498,3.32698 1.743498,7.58113 z m -6.265703,0 q 0,-4.19963 -2.288344,-6.54486 -2.23386,-2.34524 -5.502922,-2.34524 -2.124885,0 -3.922873,1.03626 -1.797989,1.03628 -2.887671,3.05428 -1.035202,1.96346 -1.035202,4.79956 0,2.83611 1.035202,4.8541 1.089682,1.96346 2.887671,2.99975 1.797988,1.03627 3.922873,1.03627 3.269062,0 5.502922,-2.34524 2.288344,-2.34526 2.288344,-6.54488 z"
     id="path1022-7"
     style="fill:#8a8c90;fill-opacity:1" /><path
     d="m 114.94732,283.56954 q 0,4.31793 -1.90896,7.70672 -1.85437,3.33409 -5.18136,5.2471 -3.27244,1.85836 -7.30846,1.85836 -4.036026,0 -7.363014,-1.85836 -3.272452,-1.91301 -5.18137,-5.2471 -1.908936,-3.38879 -1.908936,-7.70672 0,-4.31796 1.908936,-7.65207 1.908918,-3.38878 5.18137,-5.24711 3.326988,-1.91304 7.363014,-1.91304 4.03602,0 7.30846,1.91304 3.32699,1.85833 5.18136,5.24711 1.90896,3.33411 1.90896,7.65207 z m -22.579903,0 q 0,2.78752 1.090813,4.80985 1.145359,2.02232 2.999739,3.06082 1.90893,1.0385 4.090571,1.0385 2.18162,0 4.03602,-1.0385 1.85436,-1.0385 2.94519,-3.06082 1.14535,-2.02233 1.14535,-4.80985 0,-2.78755 -1.14535,-4.80987 -1.09083,-2.02234 -2.94519,-3.06082 -1.8544,-1.0385 -4.03602,-1.0385 -2.181641,0 -4.090571,1.0385 -1.85438,1.03848 -2.999739,3.06082 -1.090813,2.02232 -1.090813,4.80987 z"
     id="path1024-1"
     style="fill:#8a8c90;fill-opacity:1" /><path
     d="m 123.40273,285.31945 v 12.22253 h -6.22071 v -27.94243 h 5.94786 v 4.64839 c 0.76393,-1.49812 1.90984,-2.72221 3.43772,-3.67225 1.5643,-0.95003 3.49232,-1.44329 5.78415,-1.47984 l 0.65481,6.02905 c -3.16489,0.073 -5.56586,0.95003 -7.20288,2.63085 -1.60065,1.64427 -2.40095,4.16551 -2.40095,7.5637 z"
     id="path1026-3"
     style="fill:#8a8c90;fill-opacity:1" /><path
     d="m 146.22608,287.88144 q 0,2.51785 1.03937,3.55783 1.09412,1.03999 3.61051,1.03999 0.76587,0 1.42235,-0.10948 v 5.25467 q -1.64116,0.43789 -3.50111,0.43789 -4.37639,0 -6.61927,-2.07999 -2.18817,-2.07995 -2.18817,-6.56831 v -14.50505 h -5.19695 v -5.30941 h 5.19695 v -8.86723 h 6.23632 v 8.86723 h 6.34574 v 5.30941 h -6.34574 z"
     id="path1028-8"
     style="fill:#8a8c90;fill-opacity:1" /><path
     d="m 175.25549,271.81816 -3.05364,4.48192 q -2.89003,-2.13165 -6.32535,-2.13165 -2.07212,0 -3.1627,0.76521 -1.09059,0.71054 -1.09059,1.96768 0,1.09314 0.81795,1.69437 0.87247,0.60123 2.83551,1.42109 l 2.4538,0.98384 q 4.19874,1.69438 6.10726,3.55275 1.90852,1.85834 1.90852,5.13781 0,3.99 -2.94457,6.34028 -2.89004,2.35026 -7.47049,2.35026 -3.27174,0 -6.21632,-1.03849 -2.94457,-1.09315 -5.07121,-2.9515 l 3.21723,-4.59125 q 1.63587,1.36646 3.70797,2.24097 2.12666,0.81987 4.36233,0.81987 2.01758,0 3.1627,-0.76522 1.19963,-0.81984 1.19963,-2.40492 0,-1.36646 -1.25417,-2.13165 -1.19964,-0.81986 -4.03515,-1.96767 l -2.50834,-1.03849 q -3.43534,-1.4211 -4.90761,-3.2248 -1.41778,-1.80371 -1.41778,-4.42725 0,-2.13165 1.19965,-3.99002 1.19965,-1.85834 3.5444,-3.00616 2.39928,-1.14782 5.72554,-1.14782 2.94459,0 5.28933,0.87455 2.39928,0.87451 3.9261,2.18629 z"
     id="path1030-4"
     style="fill:#8a8c90;fill-opacity:1" /></svg>
