<?xml version="1.0" encoding="UTF-8" standalone="no"?>
<svg
   viewBox="0 0 225.584 299.23306"
   version="1.1"
   id="svg1875"
   xml:space="preserve"
   width="225.584"
   height="299.23306"
   xmlns="http://www.w3.org/2000/svg"
   xmlns:svg="http://www.w3.org/2000/svg"><mask
     id="a"
     maskUnits="userSpaceOnUse"
     x="27"
     y="0"
     width="174"
     height="173"><path
       fill-rule="evenodd"
       clip-rule="evenodd"
       d="m 114.059,172.356 c 47.595,0 86.179,-38.583 86.179,-86.1778 C 200.238,38.5833 161.654,0 114.059,0 66.4645,0 27.8812,38.5833 27.8812,86.1782 c 0,47.5948 38.5833,86.1778 86.1778,86.1778 z"
       fill="#ffffff"
       id="path1837" /></mask><defs
     id="defs1873"><linearGradient
       id="b"
       x1="35.774101"
       y1="152.31"
       x2="149.257"
       y2="152.31"
       gradientUnits="userSpaceOnUse"><stop
         stop-color="#EBF5F7"
         id="stop1851" /><stop
         offset=".1524"
         stop-color="#F1F8FA"
         id="stop1853" /><stop
         offset=".5381"
         stop-color="#FCFDFE"
         id="stop1855" /><stop
         offset="1"
         stop-color="#fff"
         id="stop1857" /></linearGradient><linearGradient
       id="d"
       x1="159.726"
       y1="199.207"
       x2="227.089"
       y2="40.511501"
       gradientUnits="userSpaceOnUse"><stop
         offset=".1"
         stop-color="#C09"
         id="stop1860" /><stop
         offset=".1989"
         stop-color="#CF0090"
         id="stop1862" /><stop
         offset=".3602"
         stop-color="#D70078"
         id="stop1864" /><stop
         offset=".5638"
         stop-color="#E40050"
         id="stop1866" /><stop
         offset=".7995"
         stop-color="#F70019"
         id="stop1868" /><stop
         offset=".9"
         stop-color="red"
         id="stop1870" /></linearGradient><mask
       id="c"
       maskUnits="userSpaceOnUse"
       x="27"
       y="0"
       width="174"
       height="173"><path
         fill-rule="evenodd"
         clip-rule="evenodd"
         d="M 114.059,86.1782 36.973,124.743 c -5.817,-11.634 -9.0918,-24.69 -9.0918,-38.5648 0,-13.8747 3.2748,-26.9307 9.0918,-38.5647 z M 114.059,0 C 92.7303,0 73.254,7.75604 58.216,20.5535 l 90.315,48.3891 v 34.4714 l -90.315,48.389 c 15.038,12.797 34.5143,20.553 55.843,20.553 47.614,0 86.179,-38.564 86.179,-86.1778 C 200.238,38.5648 161.673,0 114.059,0 Z"
         fill="#ffffff"
         id="path1842" /></mask></defs><path
     d="M 23.1237,238.80357 H 15.116 L 0,199.49329 h 7.23685 l 5.56685,14.90138 c 2.1839,5.86697 4.3678,11.81874 6.423201,17.6857 C 21.3251,226.17049 23.4662,220.13289 25.693,214.18113 l 5.4811,-14.68784 h 7.108401 z m 26.9346,-47.70304 c 0,2.48391 -2.0126,4.53867 -4.6247,4.53867 -2.612099,0 -4.6248,-2.05476 -4.6248,-4.53867 0,-2.48391 2.012701,-4.53867 4.6248,-4.53867 2.6121,0 4.6247,2.09768 4.6247,4.53867 z m -8.0078,47.70304 v -39.31028 h 6.8086 v 39.31028 z m 46.076201,-26.46366 v 26.46366 h -6.466 v -5.18136 c -2.483701,3.98181 -7.3653,6.16532 -13.360401,6.16532 -7.921899,0 -13.916999,-3.5537 -13.916999,-11.30479 0,-10.23397 10.234399,-11.8177 20.768499,-14.12995 l 6.2948,-1.37121 v -0.17064 c 0,-5.99468 -4.025299,-8.30795 -9.549199,-8.30795 -6.0379,0 -10.362901,2.8262 -12.803701,4.96782 l -2.2267,-5.73823 c 2.9975,-2.44099 8.264601,-5.13845 15.3729,-5.13845 10.1059,-0.0429 15.886801,5.35302 15.886801,13.74578 z m -6.637301,9.72003 v -3.59661 l -5.738099,1.28436 c -10.063,2.22643 -14.5165,3.72535 -14.5165,8.60733 0,3.63952 2.9975,5.65239 8.050499,5.65239 6.6373,0 12.2041,-3.42597 12.2041,-11.94747 z m 52.1566,-2.95493 c 0,12.59016 -7.408,20.64063 -18.37,20.64063 -5.696,0 -10.32,-2.14162 -13.361,-6.25218 v 16.87135 h -6.8083 v -50.87152 h 6.5513 v 6.20925 c 3.041,-4.58159 7.88,-7.15131 13.96,-7.15131 10.748,0 18.028,8.05047 18.028,20.55378 z m -6.894,0 c 0,-8.90671 -4.925,-14.51619 -12.29,-14.51619 -7.408,0 -12.761,5.65239 -12.761,14.64492 0,8.77797 5.139,14.51618 12.632,14.51618 7.494,0 12.419,-5.69529 12.419,-14.64491 z m 12.632,19.69856 v -50.7009 h 6.809 v 50.74279 h -6.809 z m 46.119,-26.46366 v 26.46366 h -6.466 v -5.18136 c -2.48399,3.98181 -7.365,6.16532 -13.35999,6.16532 -7.92201,0 -13.91701,-3.5537 -13.91701,-11.30479 0,-10.23397 10.234,-11.8177 20.768,-14.12995 l 6.295,-1.37121 v -0.17064 c 0,-5.99468 -4.025,-8.30795 -9.54899,-8.30795 -6.03801,0 -10.40601,2.8262 -12.80401,4.96782 l -2.227,-5.73823 c 2.998,-2.44099 8.265,-5.13845 15.373,-5.13845 10.10601,-0.0429 15.887,5.35302 15.887,13.74578 z m -6.637,9.72003 v -3.59661 l -5.738,1.28436 c -10.064,2.22643 -14.51699,3.72535 -14.51699,8.60733 0,3.63952 2.99799,5.65239 8.04999,5.65239 6.595,0 12.205,-3.42597 12.205,-11.94747 z m 32.501,14.17389 c -3.64,9.37774 -8.222,13.06018 -16.572,15.07305 l -2.098,-5.48073 c 4.068,-1.37019 7.751,-2.65557 10.406,-6.55155 l -15.33,-39.78131 h 7.236 l 5.267,14.13097 c 2.184,5.90989 4.839,12.97537 6.466,17.59987 1.79901,-4.71033 4.325,-11.6481 6.55201,-17.59987 l 5.22399,-14.13097 h 7.066 z"
     id="path1835"
     style="fill:#212d33;fill-opacity:1" /><path
     d="M 148.056,67.9113 58.2895,19.7037 57.8177,19.4462 57.3888,19.8325 c -8.7922,7.5123 -15.9547,16.6559 -21.23,27.259 l -0.386,0.7727 0.772,0.3863 75.1842,37.6045 -75.1842,37.647 -0.772,0.387 0.386,0.772 c 5.2753,10.561 12.4378,19.747 21.23,27.259 l 0.4289,0.387 0.5147,-0.258 89.6806,-48.207 0.343,-0.258 0.858,-0.515 V 68.7269 l -0.858,-0.5151 z"
     fill="url(#b)"
     id="path1840"
     mask="url(#a)"
     transform="matrix(0.98726921,0,0,0.98726921,0.28906815,0)"
     style="fill:url(#b)" /><path
     d="m 114.059,172.356 c 47.595,0 86.179,-38.583 86.179,-86.1778 C 200.238,38.5833 161.654,0 114.059,0 66.4645,0 27.8812,38.5833 27.8812,86.1782 c 0,47.5948 38.5833,86.1778 86.1778,86.1778 z"
     fill="url(#d)"
     id="path1845"
     mask="url(#c)"
     transform="matrix(0.98726921,0,0,0.98726921,0.28906815,0)"
     style="fill:url(#d)" /><path
     d="m 81.567184,283.25022 -10.131309,15.26636 h -7.972188 l 14.006685,-20.447 -12.788709,-18.68337 h 7.916813 l 9.079432,13.7783 9.02407,-13.7783 h 7.916819 l -12.899433,18.73849 13.840592,20.39188 h -8.027544 z"
     id="path4740"
     style="fill:#8a8c90;fill-opacity:1" /><path
     d="m 110.11861,288.70643 c 0,1.69014 0.3409,2.85084 1.08164,3.58824 0.73816,0.6981 1.84801,1.03555 3.62416,1.03555 0.51672,0 0.99653,-0.0367 1.43942,-0.11023 v 5.29659 c -1.10724,0.29393 -2.2883,0.4409 -3.54318,0.4409 -3.00152,0 -5.13243,-0.66435 -6.64566,-2.06055 -1.47633,-1.3962 -2.26769,-3.57532 -2.26769,-6.64733 v -14.605 h -5.259421 v -5.34598 h 5.259421 v -8.92833 h 6.31131 v 8.92833 h 6.42204 v 5.34598 h -6.42204 z"
     id="path4742"
     style="fill:#8a8c90;fill-opacity:1" /><path
     d="m 126.15847,286.22634 v 12.29024 h -6.31132 v -28.21796 h 6.03306 v 4.83273 c 0.85643,-1.66455 2.00829,-2.83152 3.47132,-3.71921 1.63349,-0.97255 3.61871,-1.46356 5.88091,-1.49931 l 0.66435,6.0717 c -3.16331,0.0724 -5.64536,0.95512 -7.2381,2.60613 -1.673,1.70332 -2.50022,4.26394 -2.50022,7.63568 z"
     id="path4744"
     style="fill:#8a8c90;fill-opacity:1" /><path
     d="m 156.02419,295.33168 c -0.77454,1.28598 -1.93945,2.27483 -3.41803,2.92149 -1.43256,0.6422 -3.2577,0.97988 -5.32311,0.97988 -2.94129,0 -5.46579,-0.70603 -7.21201,-2.05531 -1.83046,-1.41439 -2.80157,-3.40677 -2.80157,-5.99122 0,-4.0332 2.19594,-6.25756 5.25806,-7.73021 1.73124,-0.82387 3.88806,-1.4732 6.5812,-2.02482 l 6.74949,-1.48806 c 0,-3.29155 -2.02854,-4.9495 -6.08561,-4.9495 -2.98747,0 -5.6188,1.17653 -7.9055,3.52802 l -3.66023,-4.25214 c 2.95059,-3.19657 6.98245,-4.79788 11.78703,-4.79788 3.7836,0 6.87568,0.88607 8.98226,2.82756 1.92866,1.77901 2.91569,4.32151 2.91569,7.53372 v 11.95956 c 0,3.08634 0.11065,5.32761 0.33195,6.72381 h -5.81236 c -0.14753,-0.58787 -0.27662,-1.64173 -0.38726,-3.1849 z m -0.16597,-7.78263 v -2.97611 l -5.53237,1.32272 c -2.47112,0.58787 -4.22304,1.24923 -5.25575,1.98407 -1.0327,0.6981 -1.54906,1.63503 -1.54906,2.81077 0,1.02878 0.44259,1.85548 1.32777,2.4801 0.88518,0.58787 2.1023,0.88181 3.65135,0.88181 2.24984,0 4.03864,-0.55113 5.36641,-1.6534 1.32776,-1.139 1.99165,-2.75566 1.99165,-4.84996 z"
     id="path4746"
     style="fill:#8a8c90;fill-opacity:1" /></svg>
