<?xml version="1.0" encoding="UTF-8" standalone="no"?>
<svg
   viewBox="0 0 225.584 308.94971"
   version="1.1"
   id="svg1875"
   xml:space="preserve"
   width="225.584"
   height="308.94971"
   xmlns="http://www.w3.org/2000/svg"
   xmlns:svg="http://www.w3.org/2000/svg"><mask
     id="a"
     maskUnits="userSpaceOnUse"
     x="27"
     y="0"
     width="174"
     height="173"><path
       fill-rule="evenodd"
       clip-rule="evenodd"
       d="m 114.059,172.356 c 47.595,0 86.179,-38.583 86.179,-86.1778 C 200.238,38.5833 161.654,0 114.059,0 66.4645,0 27.8812,38.5833 27.8812,86.1782 c 0,47.5948 38.5833,86.1778 86.1778,86.1778 z"
       fill="#ffffff"
       id="path1837" /></mask><defs
     id="defs1873"><linearGradient
       id="b"
       x1="35.774101"
       y1="152.31"
       x2="149.257"
       y2="152.31"
       gradientUnits="userSpaceOnUse"><stop
         stop-color="#EBF5F7"
         id="stop1851" /><stop
         offset=".1524"
         stop-color="#F1F8FA"
         id="stop1853" /><stop
         offset=".5381"
         stop-color="#FCFDFE"
         id="stop1855" /><stop
         offset="1"
         stop-color="#fff"
         id="stop1857" /></linearGradient><linearGradient
       id="d"
       x1="159.726"
       y1="199.207"
       x2="227.089"
       y2="40.511501"
       gradientUnits="userSpaceOnUse"><stop
         offset=".1"
         stop-color="#C09"
         id="stop1860" /><stop
         offset=".1989"
         stop-color="#CF0090"
         id="stop1862" /><stop
         offset=".3602"
         stop-color="#D70078"
         id="stop1864" /><stop
         offset=".5638"
         stop-color="#E40050"
         id="stop1866" /><stop
         offset=".7995"
         stop-color="#F70019"
         id="stop1868" /><stop
         offset=".9"
         stop-color="red"
         id="stop1870" /></linearGradient><mask
       id="c"
       maskUnits="userSpaceOnUse"
       x="27"
       y="0"
       width="174"
       height="173"><path
         fill-rule="evenodd"
         clip-rule="evenodd"
         d="M 114.059,86.1782 36.973,124.743 c -5.817,-11.634 -9.0918,-24.69 -9.0918,-38.5648 0,-13.8747 3.2748,-26.9307 9.0918,-38.5647 z M 114.059,0 C 92.7303,0 73.254,7.75604 58.216,20.5535 l 90.315,48.3891 v 34.4714 l -90.315,48.389 c 15.038,12.797 34.5143,20.553 55.843,20.553 47.614,0 86.179,-38.564 86.179,-86.1778 C 200.238,38.5648 161.673,0 114.059,0 Z"
         fill="#ffffff"
         id="path1842" /></mask></defs><path
     d="M 23.1237,238.80357 H 15.116 L 0,199.49329 h 7.23685 l 5.56685,14.90138 c 2.1839,5.86697 4.3678,11.81874 6.423201,17.6857 C 21.3251,226.17049 23.4662,220.13289 25.693,214.18113 l 5.4811,-14.68784 h 7.108401 z m 26.9346,-47.70304 c 0,2.48391 -2.0126,4.53867 -4.6247,4.53867 -2.612099,0 -4.6248,-2.05476 -4.6248,-4.53867 0,-2.48391 2.012701,-4.53867 4.6248,-4.53867 2.6121,0 4.6247,2.09768 4.6247,4.53867 z m -8.0078,47.70304 v -39.31028 h 6.8086 v 39.31028 z m 46.076201,-26.46366 v 26.46366 h -6.466 v -5.18136 c -2.483701,3.98181 -7.3653,6.16532 -13.360401,6.16532 -7.921899,0 -13.916999,-3.5537 -13.916999,-11.30479 0,-10.23397 10.234399,-11.8177 20.768499,-14.12995 l 6.2948,-1.37121 v -0.17064 c 0,-5.99468 -4.025299,-8.30795 -9.549199,-8.30795 -6.0379,0 -10.362901,2.8262 -12.803701,4.96782 l -2.2267,-5.73823 c 2.9975,-2.44099 8.264601,-5.13845 15.3729,-5.13845 10.1059,-0.0429 15.886801,5.35302 15.886801,13.74578 z m -6.637301,9.72003 v -3.59661 l -5.738099,1.28436 c -10.063,2.22643 -14.5165,3.72535 -14.5165,8.60733 0,3.63952 2.9975,5.65239 8.050499,5.65239 6.6373,0 12.2041,-3.42597 12.2041,-11.94747 z m 52.1566,-2.95493 c 0,12.59016 -7.408,20.64063 -18.37,20.64063 -5.696,0 -10.32,-2.14162 -13.361,-6.25218 v 16.87135 h -6.8083 v -50.87152 h 6.5513 v 6.20925 c 3.041,-4.58159 7.88,-7.15131 13.96,-7.15131 10.748,0 18.028,8.05047 18.028,20.55378 z m -6.894,0 c 0,-8.90671 -4.925,-14.51619 -12.29,-14.51619 -7.408,0 -12.761,5.65239 -12.761,14.64492 0,8.77797 5.139,14.51618 12.632,14.51618 7.494,0 12.419,-5.69529 12.419,-14.64491 z m 12.632,19.69856 v -50.7009 h 6.809 v 50.74279 h -6.809 z m 46.119,-26.46366 v 26.46366 h -6.466 v -5.18136 c -2.48399,3.98181 -7.365,6.16532 -13.35999,6.16532 -7.92201,0 -13.91701,-3.5537 -13.91701,-11.30479 0,-10.23397 10.234,-11.8177 20.768,-14.12995 l 6.295,-1.37121 v -0.17064 c 0,-5.99468 -4.025,-8.30795 -9.54899,-8.30795 -6.03801,0 -10.40601,2.8262 -12.80401,4.96782 l -2.227,-5.73823 c 2.998,-2.44099 8.265,-5.13845 15.373,-5.13845 10.10601,-0.0429 15.887,5.35302 15.887,13.74578 z m -6.637,9.72003 v -3.59661 l -5.738,1.28436 c -10.064,2.22643 -14.51699,3.72535 -14.51699,8.60733 0,3.63952 2.99799,5.65239 8.04999,5.65239 6.595,0 12.205,-3.42597 12.205,-11.94747 z m 32.501,14.17389 c -3.64,9.37774 -8.222,13.06018 -16.572,15.07305 l -2.098,-5.48073 c 4.068,-1.37019 7.751,-2.65557 10.406,-6.55155 l -15.33,-39.78131 h 7.236 l 5.267,14.13097 c 2.184,5.90989 4.839,12.97537 6.466,17.59987 1.79901,-4.71033 4.325,-11.6481 6.55201,-17.59987 l 5.22399,-14.13097 h 7.066 z"
     id="path1835"
     style="fill:#212d33;fill-opacity:1" /><path
     d="M 148.056,67.9113 58.2895,19.7037 57.8177,19.4462 57.3888,19.8325 c -8.7922,7.5123 -15.9547,16.6559 -21.23,27.259 l -0.386,0.7727 0.772,0.3863 75.1842,37.6045 -75.1842,37.647 -0.772,0.387 0.386,0.772 c 5.2753,10.561 12.4378,19.747 21.23,27.259 l 0.4289,0.387 0.5147,-0.258 89.6806,-48.207 0.343,-0.258 0.858,-0.515 V 68.7269 l -0.858,-0.5151 z"
     fill="url(#b)"
     id="path1840"
     mask="url(#a)"
     transform="matrix(0.98726921,0,0,0.98726921,0.28906815,0)"
     style="fill:url(#b)" /><path
     d="m 114.059,172.356 c 47.595,0 86.179,-38.583 86.179,-86.1778 C 200.238,38.5833 161.654,0 114.059,0 66.4645,0 27.8812,38.5833 27.8812,86.1782 c 0,47.5948 38.5833,86.1778 86.1778,86.1778 z"
     fill="url(#d)"
     id="path1845"
     mask="url(#c)"
     transform="matrix(0.98726921,0,0,0.98726921,0.28906815,0)"
     style="fill:url(#d)" /><path
     d="m 52.513932,262.50756 -3.870885,5.05201 q -1.935445,-1.55447 -3.981482,-2.3317 -1.990738,-0.83275 -4.479161,-0.83275 -2.986106,0 -4.645057,1.3324 -1.658951,1.27687 -1.658951,3.21994 0,1.66551 1.327158,2.83136 1.327155,1.16584 4.147378,2.3872 l 3.870878,1.72102 q 3.483792,1.55445 5.640433,3.0534 2.156635,1.44343 3.317902,3.55305 1.161259,2.05411 1.161259,5.052 0,3.55306 -1.769543,6.21786 -1.714249,2.66478 -4.810955,4.10821 -3.041412,1.44343 -7.022893,1.44343 -4.589754,0 -8.405339,-1.55446 -3.815585,-1.60998 -6.580502,-4.16373 l 3.649688,-5.10753 q 5.419238,4.60787 11.28086,4.60787 3.152004,0 4.976845,-1.38791 1.880147,-1.3879 1.880147,-3.88615 0,-1.55446 -0.82948,-2.60928 -0.829471,-1.11032 -2.267226,-1.88756 -1.382461,-0.83275 -3.981482,-1.94307 l -3.815585,-1.72101 q -4.755655,-2.10963 -6.691096,-4.55236 -1.880145,-2.44273 -1.880145,-5.99578 0,-2.94237 1.603651,-5.44061 1.603652,-2.49824 4.589764,-3.94167 3.041408,-1.49895 7.133487,-1.49895 7.188779,0 12.110332,4.27477 z"
     id="path3354-1-5"
     style="fill:#8a8c90;fill-opacity:1" /><path
     d="m 84.075185,284.25328 q 0,4.37447 -1.756147,7.75223 -1.701271,3.37776 -4.719656,5.26045 -2.963504,1.88268 -6.640438,1.88268 -5.433093,0 -8.616118,-3.48849 v 13.28954 H 56.08655 v -38.87192 h 5.927007 v 3.21164 q 1.536627,-1.88269 3.786695,-2.87941 2.304942,-0.9967 5.158692,-0.9967 3.676934,0 6.640438,1.88268 3.018385,1.88269 4.719656,5.26044 1.756147,3.37776 1.756147,7.69686 z m -6.311163,0 q 0,-4.26373 -2.304948,-6.64477 -2.250067,-2.38105 -5.542847,-2.38105 -2.140302,0 -3.951335,1.05209 -1.811034,1.0521 -2.908623,3.1009 -1.042712,1.99343 -1.042712,4.87283 0,2.8794 1.042712,4.9282 1.097589,1.99343 2.908623,3.04553 1.811033,1.05209 3.951335,1.05209 3.29278,0 5.542847,-2.38104 2.304948,-2.38105 2.304948,-6.64478 z"
     id="path3356-3-3"
     style="fill:#8a8c90;fill-opacity:1" /><path
     d="m 114.46219,284.2767 q 0,4.38385 -1.9228,7.82436 -1.86783,3.38499 -5.21896,5.32721 -3.29618,1.88672 -7.361496,1.88672 -4.065295,0 -7.416422,-1.88672 -3.296195,-1.94222 -5.218963,-5.32721 -1.922787,-3.44051 -1.922787,-7.82436 0,-4.38386 1.922787,-7.76887 1.922768,-3.4405 5.218963,-5.32721 3.351127,-1.94223 7.416422,-1.94223 4.065316,0 7.361496,1.94223 3.35113,1.88671 5.21896,5.32721 1.9228,3.38501 1.9228,7.76887 z m -22.743723,0 q 0,2.83007 1.098728,4.88327 1.153668,2.0532 3.021504,3.10755 1.922779,1.05435 4.120235,1.05435 2.197456,0 4.065316,-1.05435 1.86782,-1.05435 2.96656,-3.10755 1.15366,-2.0532 1.15366,-4.88327 0,-2.8301 -1.15366,-4.88329 -1.09874,-2.0532 -2.96656,-3.10754 -1.86786,-1.05435 -4.065316,-1.05435 -2.197456,0 -4.120235,1.05435 -1.867836,1.05434 -3.021504,3.10754 -1.098728,2.05319 -1.098728,4.88329 z"
     id="path3358-7-5"
     style="fill:#8a8c90;fill-opacity:1" /><path
     d="m 122.97894,286.05333 v 12.4091 h -6.26583 v -28.36896 h 5.99101 v 4.71934 c 0.76948,-1.52099 1.92371,-2.76376 3.46266,-3.72829 1.57565,-0.96453 3.51767,-1.46534 5.82612,-1.50244 l 0.65957,6.12108 c -3.18786,0.0741 -5.60626,0.96453 -7.25515,2.67101 -1.61226,1.66938 -2.41838,4.2291 -2.41838,7.67916 z"
     id="path3360-8-4"
     style="fill:#8a8c90;fill-opacity:1" /><path
     d="m 145.96789,288.65442 q 0,2.55629 1.04692,3.61215 1.10205,1.05586 3.63671,1.05586 0.77143,0 1.43266,-0.11115 v 5.33488 q -1.65307,0.44458 -3.52651,0.44458 -4.40814,0 -6.66729,-2.11174 -2.20406,-2.11171 -2.20406,-6.66858 v -14.72647 h -5.23465 v -5.39045 h 5.23465 v -9.00259 h 6.28157 v 9.00259 h 6.39178 v 5.39045 h -6.39178 z"
     id="path3362-8-3"
     style="fill:#8a8c90;fill-opacity:1" /><path
     d="m 175.20792,272.34595 -3.07578,4.55032 q -2.911,-2.16418 -6.37126,-2.16418 -2.08715,0 -3.18564,0.77689 -1.0985,0.72139 -1.0985,1.99771 0,1.10983 0.82388,1.72024 0.8788,0.61041 2.85609,1.44279 l 2.4716,0.99885 q 4.2292,1.72025 6.15158,3.60698 1.92236,1.88671 1.92236,5.21624 0,4.0509 -2.96594,6.43706 -2.91101,2.38614 -7.52469,2.38614 -3.29548,0 -6.26142,-1.05434 -2.96594,-1.10984 -5.108,-2.99656 l 3.24057,-4.66133 q 1.64774,1.38731 3.73487,2.27518 2.14208,0.83238 4.39398,0.83238 2.03222,0 3.18564,-0.77689 1.20834,-0.83237 1.20834,-2.44164 0,-1.38731 -1.26326,-2.16419 -1.20835,-0.83238 -4.06443,-1.99771 l -2.52655,-1.05434 q -3.46025,-1.44279 -4.94321,-3.27402 -1.42806,-1.83124 -1.42806,-4.49484 0,-2.16418 1.20835,-4.05092 1.20835,-1.88671 3.57011,-3.05205 2.41669,-1.16533 5.76709,-1.16533 2.96595,0 5.3277,0.88789 2.41669,0.88786 3.95458,2.21967 z"
     id="path3364-3-6"
     style="fill:#8a8c90;fill-opacity:1" /><path
     d="m 196.56902,298.45691 h -6.74637 v -29.42383 l -8.26523,6.00485 -3.34742,-4.6043 12.89541,-9.7859 h 5.46361 z"
     id="path4035-5"
     style="fill:#ffcf1b;fill-opacity:1" /></svg>
